<?xml version="1.0" encoding="utf-8"?>
<!-- Generator: Adobe Illustrator 19.0.0, SVG Export Plug-In . SVG Version: 6.00 Build 0)  -->
<svg version="1.2" baseProfile="tiny" id="logo_x5F_1"
	 xmlns="http://www.w3.org/2000/svg" xmlns:xlink="http://www.w3.org/1999/xlink" x="0px" y="0px" viewBox="0 0 853.2 450.7"
	 xml:space="preserve">
<g>
	<path fill="#E30613" d="M240.9,98.7c-9.8,5.2-21,8-33.4,8c-24.9,0-42.6-16.9-42.6-42.1c0-25.9,17.8-42.7,42.6-42.7
		c12.3,0,23.4,2.6,31.8,10.1l-10.6,10.7c-5.1-5-13-7.9-21.1-7.9c-16.6,0-27.7,12.8-27.7,28.8c0,17.2,11.1,30,27.7,30
		c7.3,0,13.9-1.4,18.9-4.2v-19H210v-13h30.9V98.7z"/>
	<path fill="#E30613" d="M267.6,82.1c0.9,8.1,7.1,13,14.7,13c6.8,0,11.3-3.2,14.7-7.4l9.8,7.4c-6.4,7.9-14.5,10.9-23.1,10.9
		c-16.5,0-29.8-11.5-29.8-28.7c0-17.2,13.2-28.7,29.8-28.7c15.3,0,25.6,10.7,25.6,29.8v3.8H267.6z M295.6,71.8
		c-0.1-8-5.4-13-13.9-13c-8.1,0-13.1,5.1-14.1,13H295.6z"/>
	<path fill="#E30613" d="M321.5,49.9h13v8.5h0.2c2.4-5.1,7.6-9.9,16.8-9.9c8.4,0,14.3,3.3,17.1,10.1c4-7,9.8-10.1,18-10.1
		c14.6,0,19.7,10.4,19.7,23.5v32.6h-13.7v-31c0-6.8-2.1-12.8-10.1-12.8c-8.5,0-11.7,7.1-11.7,14.1v29.6H357V72
		c0-6.7-2.7-11.2-9.3-11.2c-9,0-12.5,6.6-12.5,13.9v29.9h-13.7V49.9z"/>
	<path fill="#E30613" d="M432.2,82.1c0.9,8.1,7.1,13,14.7,13c6.8,0,11.3-3.2,14.7-7.4l9.8,7.4c-6.4,7.9-14.5,10.9-23.1,10.9
		c-16.5,0-29.8-11.5-29.8-28.7c0-17.2,13.2-28.7,29.8-28.7c15.3,0,25.6,10.7,25.6,29.8v3.8H432.2z M460.2,71.8
		c-0.1-8-5.4-13-13.9-13c-8.1,0-13.1,5.1-14.1,13H460.2z"/>
	<path fill="#E30613" d="M497.6,82.1c0.9,8.1,7.1,13,14.7,13c6.8,0,11.3-3.2,14.7-7.4l9.8,7.4c-6.4,7.9-14.5,10.9-23.1,10.9
		c-16.5,0-29.8-11.5-29.8-28.7c0-17.2,13.2-28.7,29.8-28.7c15.3,0,25.6,10.7,25.6,29.8v3.8H497.6z M525.6,71.8
		c-0.1-8-5.4-13-13.9-13c-8.1,0-13.1,5.1-14.1,13H525.6z"/>
	<path fill="#E30613" d="M552.1,49.9h13v8.8h0.2c2.5-5.5,7.6-10.1,16.8-10.1c14.7,0,20,10.4,20,21.5v34.5h-13.7V76.9
		c0-6-0.5-16.1-10-16.1c-9,0-12.5,6.6-12.5,13.9v29.9h-13.7V49.9z"/>
	<path fill="#E30613" d="M611.1,61.6V49.9h11.3V34.1h13.7v15.8h15v11.6h-15v23.9c0,5.5,1.6,8.9,7.6,8.9c2.4,0,5.7-0.5,7.4-1.7v11.5
		c-2.9,1.4-7.6,1.8-10.8,1.8c-14.5,0-17.9-6.5-17.9-19.4V61.6H611.1z"/>
	<path fill="#E30613" d="M672.8,82.1c0.9,8.1,7.1,13,14.7,13c6.8,0,11.3-3.2,14.7-7.4l9.8,7.4c-6.4,7.9-14.5,10.9-23.1,10.9
		c-16.5,0-29.8-11.5-29.8-28.7c0-17.2,13.2-28.7,29.8-28.7c15.3,0,25.6,10.7,25.6,29.8v3.8H672.8z M700.9,71.8
		c-0.1-8-5.4-13-13.9-13c-8.1,0-13.1,5.1-14.1,13H700.9z"/>
</g>
<g>
	<path fill="#E30613" d="M195.3,144h12.4l34.8,80.7h-16.4l-7.5-18.5h-35l-7.3,18.5h-16.1L195.3,144z M213.5,193.9l-12.4-32.8
		l-12.7,32.8H213.5z"/>
	<path fill="#E30613" d="M249.7,170h13v8.5h0.2c2.4-5.1,7.6-9.9,16.8-9.9c8.4,0,14.2,3.3,17.1,10.1c4-7,9.8-10.1,18-10.1
		c14.6,0,19.7,10.4,19.7,23.5v32.6h-13.7v-31c0-6.8-2.1-12.8-10.1-12.8c-8.5,0-11.7,7.1-11.7,14.1v29.6h-13.7v-32.6
		c0-6.7-2.7-11.2-9.3-11.2c-9,0-12.5,6.6-12.5,13.9v29.9h-13.7V170z"/>
	<path fill="#E30613" d="M378.6,185.1c-2.6-3.6-6-5.6-10.7-5.6c-3.6,0-8,1.7-8,5.8c0,9.8,29.5,1.8,29.5,23.1
		c0,13-12.4,17.6-23.6,17.6c-8.4,0-15.7-2.2-21.3-8.4l9.1-8.5c3.5,3.9,7.2,6.7,13,6.7c4,0,9.1-1.9,9.1-6.3
		c0-11.3-29.5-2.4-29.5-23.3c0-12.2,10.9-17.7,22-17.7c7.3,0,15,2.3,19.5,8.3L378.6,185.1z"/>
	<path fill="#E30613" d="M393.6,181.6V170h11.3v-15.8h13.7V170h15v11.6h-15v23.9c0,5.5,1.6,8.9,7.6,8.9c2.4,0,5.7-0.5,7.4-1.7v11.5
		c-2.9,1.4-7.6,1.8-10.8,1.8c-14.5,0-17.9-6.5-17.9-19.4v-25.1H393.6z"/>
	<path fill="#E30613" d="M455.3,202.1c0.9,8.1,7.1,13,14.7,13c6.8,0,11.3-3.2,14.7-7.4l9.8,7.4c-6.4,7.9-14.5,10.9-23.1,10.9
		c-16.5,0-29.8-11.5-29.8-28.7c0-17.2,13.2-28.7,29.8-28.7c15.3,0,25.6,10.7,25.6,29.8v3.8H455.3z M483.3,191.9
		c-0.1-8-5.4-13-13.9-13c-8.1,0-13.1,5.1-14.1,13H483.3z"/>
	<path fill="#E30613" d="M509.8,170h13.7v8.7h0.2c3-6.3,9-10,16.2-10c1.7,0,3.3,0.3,4.9,0.8v13.2c-2.3-0.6-4.4-1-6.6-1
		c-12.9,0-14.7,10.8-14.7,13.8v29.3h-13.7V170z"/>
	<path fill="#E30613" d="M595.5,216.5h-0.2c-4,6.6-11.2,9.6-18.8,9.6c-16.9,0-27-12.5-27-28.7c0-16.2,10.8-28.7,26.4-28.7
		c10.3,0,15.7,4.8,18.6,8.3h0.3v-38.4h13.7v86.2h-13V216.5z M579.2,213.7c10,0,16.1-7.9,16.1-16.4c0-8.5-6-16.4-16.1-16.4
		c-10,0-16.1,7.9-16.1,16.4C563.1,205.9,569.2,213.7,579.2,213.7z"/>
	<path fill="#E30613" d="M658.2,217.2h-0.3c-3.9,6.2-10.3,8.9-17.6,8.9c-10.1,0-20-5.6-20-16.4c0-17.8,20.7-19,34.4-19h3.4v-1.5
		c0-6.7-5.2-10.3-12.5-10.3c-5.7,0-10.9,2.3-14.6,5.7l-7.2-7.2c6-6.2,14.6-8.8,23.3-8.8c23.4,0,23.4,16.9,23.4,24.6v31.5h-12.3
		V217.2z M657.4,200.2h-2.8c-7.5,0-20.5,0.6-20.5,8.4c0,5,5.1,7.2,9.6,7.2c9.3,0,13.8-4.9,13.8-12.5V200.2z"/>
	<path fill="#E30613" d="M684.7,170h13v8.5h0.2c2.4-5.1,7.6-9.9,16.8-9.9c8.4,0,14.3,3.3,17.1,10.1c4-7,9.8-10.1,18-10.1
		c14.6,0,19.7,10.4,19.7,23.5v32.6h-13.7v-31c0-6.8-2.1-12.8-10.1-12.8c-8.5,0-11.7,7.1-11.7,14.1v29.6h-13.7v-32.6
		c0-6.7-2.7-11.2-9.3-11.2c-9,0-12.5,6.6-12.5,13.9v29.9h-13.7V170z"/>
</g>
<polygon fill="#E30613" points="14.7,334.5 44.7,304.5 14.7,274.5 34.7,254.5 64.7,284.5 94.7,254.5 114.7,274.5 84.7,304.5 
	114.7,334.5 94.7,354.5 64.7,324.5 34.7,354.5 "/>
<polygon fill="#E30613" points="14.7,94.3 44.7,64.3 14.7,34.3 34.7,14.3 64.7,44.3 94.7,14.3 114.7,34.3 84.7,64.3 114.7,94.3 
	94.7,114.3 64.7,84.3 34.7,114.3 "/>
<polygon fill="#E30613" points="14.7,214.5 44.7,184.5 14.7,154.5 34.7,134.5 64.7,164.5 94.7,134.5 114.7,154.5 84.7,184.5 
	114.7,214.5 94.7,234.5 64.7,204.5 34.7,234.5 "/>
</svg>
