<?xml version="1.0" encoding="utf-8"?>
<!-- Generator: Adobe Illustrator 20.0.0, SVG Export Plug-In . SVG Version: 6.00 Build 0)  -->
<svg version="1.1" id="Laag_1" xmlns="http://www.w3.org/2000/svg" xmlns:xlink="http://www.w3.org/1999/xlink" x="0px" y="0px"
	 viewBox="0 0 232 326.8" enable-background="new 0 0 232 326.8" xml:space="preserve">
<path fill="#C0C0C0" d="M201.7,230.6c0,0-7.5-58.4-158.8-24.8c0,0-44.4,113,22.2,105.5l116.4-17.5
	C181.4,293.8,241.4,280.4,201.7,230.6z"/>
<path d="M183.1,292.9c-1.4,0.3-2.4,0.5-2.9,0.5l-97.1,20.9c-0.4,0.1-0.8,0.2-1.2,0.3c-21.7,4.7-37.9,2-48-8
	c-14.6-14.4-10.4-38.4-10-40.8c11.7-81.3,20.9-141.3,21-141.9l0.1-0.6c5.4-18.8,2.1-32.1,2.1-32.2l0-0.2l-9.7-45.1L33.7,33
	l68.6-14.7l1.7,8.1l7.7,32.8l0,0.2c5.1,29.9,21.2,48.1,21.4,48.3l0.2,0.3l0.2,0.3l74.2,111.9c12.2,18.9,15.6,35,10.2,48.1
	C211,285.2,191.2,291.1,183.1,292.9z M178.3,283.7l0.4-0.1c0,0,0.9-0.1,2.3-0.4c5.2-1.1,22.5-5.8,27.9-18.8
	c4.1-9.9,0.9-22.9-9.4-38.9l-74-111.5c-2.3-2.7-18.2-21.9-23.5-52.8l-7.3-31.1L46.3,40.5l0.9,3l9.7,45.2c0.4,1.7,3.7,16.4-2.1,37
	c-0.7,4.8-9.7,63.3-21,141.6l0,0.3c0,0.2-4,20.9,7.2,32c7.6,7.4,20.6,9.2,38.9,5.3c0.4-0.1,0.8-0.2,1.2-0.3L178.3,283.7z"/>
<path d="M109.9,16.9c1,4.7-2,9.4-6.7,10.4l-65,14c-4.7,1-9.4-2-10.4-6.7l0,0c-1-4.7,2-9.4,6.7-10.4l65-14
	C104.3,9.2,108.9,12.2,109.9,16.9L109.9,16.9z"/>
<g>
	<polygon fill="#E30613" points="112.9,241.2 120.4,229.6 108.8,222.1 113.8,214.4 125.5,221.9 133,210.3 140.7,215.3 133.2,226.9 
		144.8,234.4 139.8,242.1 128.2,234.6 120.7,246.2 	"/>
	<polygon fill="#E30613" points="104.7,203 112.2,191.4 100.6,183.9 105.6,176.1 117.2,183.6 124.7,172 132.5,177 125,188.6 
		136.6,196.1 131.6,203.9 120,196.4 112.5,208 	"/>
	<polygon fill="#E30613" points="96.5,164.8 104,153.1 92.4,145.6 97.4,137.9 109,145.4 116.5,133.8 124.3,138.8 116.8,150.4 
		128.4,157.9 123.4,165.6 111.8,158.1 104.2,169.8 	"/>
</g>
</svg>
